<?xml version="1.0" encoding="utf-8"?>
<!-- Generator: Adobe Illustrator 16.0.4, SVG Export Plug-In . SVG Version: 6.00 Build 0)  -->
<!DOCTYPE svg PUBLIC "-//W3C//DTD SVG 1.1//EN" "http://www.w3.org/Graphics/SVG/1.1/DTD/svg11.dtd">
<svg version="1.1" id="Layer_1" xmlns="http://www.w3.org/2000/svg" xmlns:xlink="http://www.w3.org/1999/xlink" x="0px" y="0px"
	 width="127.494px" height="245.986px" viewBox="0 0 127.494 245.986" enable-background="new 0 0 127.494 245.986"
	 xml:space="preserve">
<g>
	<path fill="#990C10" d="M28.363,246.025h78.463L95.274,149.74c0,0,2.199-13.453,1.275-21.679c0,0,12.826-11.475,16.826-20.475
		c0,0-2.146-13.926,6.178-27.713l5.898-9.42c0,0,2.205-2.935,2.314-8.65l-15.834-11.627l0.875-5.637
		c0,0-13.511-16.859-20.722-11.156l-1.274-2.869c0,0,3.063-7.178-6.687-10.928l-9.75-5c0,0-3.599-1.859-4.924,0.945h-4.462
		l0.318-6.376L46.502,2.781c0,0-6.338,0.896-8.606,5.101c0,0-11.268,20.456-10.518,22.706l-0.321,3.115L3.377,57.088
		c0,0-4.5,3.75-1,11.5c0,0,3.5,12.25,10,25c0,0,9.5,17.25,18.5,22.5c0,0,6.5,6.25,5.5,13l-0.75,43L28.363,246.025z"/>
	<g>
		<path fill="#990C10" d="M21.319,68.131c7.013,0.639,18.488-10.838,9.563-13.387c-1.913-4.783,4.781,0.637,8.925,2.549
			c4.146,1.914,22.954,0,22.954,0s7.649-10.201,3.823-13.391c-3.823-3.187-28.052-13.388-28.052-13.388s-7.65-0.639-11.476,3.188
			C23.231,37.529,2.829,57.93,2.829,57.93s-1.913,1.914-1.275,6.375c0.638,4.465,9.564,33.154,22.953,45.269
			c13.389,12.114,12.113,16.577,12.113,16.577s1.276,37.615-1.275,50.367c-2.549,12.752-6.981,69.508-6.981,69.508h78.463
			c0,0-12.223-92.918-11.551-96.284c1.307-6.558,1.307-18.615,1.307-18.615l-8.771-5.849l-8.793-1.041c0,0,0.639,15.941-2.23,22.316
			c-0.639-6.059,2.23-20.723-0.639-21.996c-4.463-0.639-22.314,2.23-22.314,2.23s11.795-2.869,15.939-3.824
			c4.146-0.957,4.146-7.65,4.146-7.65s1.911,4.144,3.824,6.056s9.243,1.596,9.243,1.596l9.564,5.1c0,0,17.208-15.942,16.844-21.791
			c-1.084-17.34,5.472-23.477,5.472-23.477l-8.927,4.465c0,0-9.248,5.76-12.113,7.012c-0.732,0.134-9.674-6.198-8.764-5.127
			c-0.545-1.803-3.351-6.35-15.465-4.438c3.826,5.74,6.269,17.797,5.42,22.315c-0.957,5.103-3.188-0.319-3.188-0.319
			s1.018-14.318-7.391-24.188c-8.403-7.674-8.979-8.592-17.905-9.867c-8.927-1.274-17.178-7.309-17.178-7.309
			S22.594,71.32,21.319,68.131z"/>
		<path fill="#990C10" d="M30.882,21.59c0,0-6.694,13.069-0.956,9.244c5.737-3.826,7.013-2.231,8.288-2.231
			c1.276,0,14.983,7.016,14.983,7.016l11.794-20.084l0.318-6.376L46.502,2.781c0,0-6.695,1.595-8.606,5.101
			C35.982,11.388,30.882,21.59,30.882,21.59z"/>
		<path fill="#990C10" d="M58.615,36.253c0,0,8.288,3.188,9.883,7.015c1.594,3.824-2.231,14.344-3.507,15.301
			c-0.827,0.621-11.158,3.826-16.896,2.232c-2.604,0.766-0.638,3.188-0.638,3.188c1.595,2.549,12.751,6.375,12.751,6.375
			s3.188,3.823,6.695-2.232c3.506-6.057,16.258-27.414,16.258-27.414l7.65-10.201c0,0,2.229-6.376-4.146-9.563
			c-3.47-1.733-11.158-5.418-11.158-5.418s-3.823-3.508-6.057,0C67.224,19.038,58.615,36.253,58.615,36.253z"/>
		<path fill="#990C10" d="M92.088,33.385c0,0-16.896,26.777-18.489,31.24c-1.594,3.506-2.867,10.201-2.867,10.201
			s6.692,6.057,10.52,6.057c3.824,0,6.375-1.594,9.562-4.463c3.187-2.869,14.025-17.533,14.025-17.533l7.971-14.346
			C112.81,44.541,99.737,28.285,92.088,33.385z"/>
		<path fill="#990C10" d="M111.935,50.178l-3.511,10.26c0,0-11.58,12.945-11.717,14.881c-0.138,1.935-9.944,3.185-6.547,8.625
			c3.397,5.441,9.836,5.793,9.836,5.793l19.558-9.86c0,0,4.084-7.603,5.899-9.42c2.192-2.191,2.313-8.65,2.313-8.65
			S112.916,50.404,111.935,50.178z"/>
	</g>
</g>
<g>
	<g>
		<g>
			<path id="SVGID_1_" fill="#470000" d="M31.922,49.017c0-3.049,2.475-5.523,5.524-5.523h52.601c3.051,0,5.523,2.475,5.523,5.523
				v52.591c0,3.06-2.473,5.523-5.523,5.523H37.447c-3.049,0-5.524-2.464-5.524-5.523V49.017L31.922,49.017z"/>
		</g>
		<g>
			<g>
				<path id="SVGID_2_" fill="#470000" d="M31.922,49.017c0-3.049,2.475-5.523,5.524-5.523h52.601c3.051,0,5.523,2.475,5.523,5.523
					v52.591c0,3.06-2.473,5.523-5.523,5.523H37.447c-3.049,0-5.524-2.464-5.524-5.523V49.017L31.922,49.017z"/>
			</g>
			<g>
				<defs>
					<path id="SVGID_3_" d="M31.922,49.017c0-3.049,2.475-5.523,5.524-5.523h52.601c3.051,0,5.523,2.475,5.523,5.523v52.591
						c0,3.06-2.473,5.523-5.523,5.523H37.447c-3.049,0-5.524-2.464-5.524-5.523V49.017L31.922,49.017z"/>
				</defs>
				<clipPath id="SVGID_4_">
					<use xlink:href="#SVGID_3_"  overflow="visible"/>
				</clipPath>
				<g clip-path="url(#SVGID_4_)">
					<path fill="#470000" d="M120.872,91.6c0-31.256-25.367-56.623-56.621-56.623c-31.255,0-56.623,25.367-56.623,56.623
						c0,31.255,25.367,56.622,56.623,56.622C95.507,148.222,120.872,122.855,120.872,91.6"/>
					<path fill="#470000" d="M96.343,91.6c0-17.714-14.379-32.092-32.094-32.092S32.16,73.885,32.16,91.6
						c0,17.712,14.376,32.089,32.089,32.089C81.964,123.689,96.343,109.314,96.343,91.6"/>
					<path fill="#470000" d="M71.808,91.6c0-4.174-3.387-7.56-7.559-7.56s-7.558,3.386-7.558,7.56c0,4.172,3.386,7.558,7.558,7.558
						S71.808,95.772,71.808,91.6"/>
				</g>
			</g>
		</g>
	</g>
	<path fill="#990C10" d="M61.487,66.196h5.967V63.49v-2.651v-0.442c0-2.551,0.066-6.496,1.924-8.937
		c1.953-2.586,4.641-4.341,9.254-4.341c7.527,0,10.699,1.071,10.699,1.071l-1.492,8.839c0,0-2.486-0.719-4.807-0.719
		c-2.316,0-4.4,0.828-4.4,3.148v0.939v3.094v2.708h9.516l-0.666,8.628h-8.85v29.985H67.454V74.825h-5.968v-8.629H61.487z"/>
</g>
</svg>
