<?xml version="1.0" encoding="utf-8"?>
<!-- Generator: Adobe Illustrator 16.0.4, SVG Export Plug-In . SVG Version: 6.00 Build 0)  -->
<!DOCTYPE svg PUBLIC "-//W3C//DTD SVG 1.1//EN" "http://www.w3.org/Graphics/SVG/1.1/DTD/svg11.dtd">
<svg version="1.1" id="Layer_1" xmlns="http://www.w3.org/2000/svg" xmlns:xlink="http://www.w3.org/1999/xlink" x="0px" y="0px"
	 width="132px" height="333px" viewBox="0 0 132 333" enable-background="new 0 0 132 333" xml:space="preserve">
<polygon stroke="#000000" points="217,26 345,26 345,268.137 280.668,353.332 217,268.137 "/>
<g>
	<defs>
		<polygon id="SVGID_1_" points="10.141,18.546 123.859,18.546 123.859,238.176 66.705,315.454 10.141,238.176 		"/>
	</defs>
	<use xlink:href="#SVGID_1_"  overflow="visible"/>
	<clipPath id="SVGID_2_">
		<use xlink:href="#SVGID_1_"  overflow="visible"/>
	</clipPath>
	<g clip-path="url(#SVGID_2_)">
		<g>
			<g>
				<defs>
					<rect id="SVGID_3_" x="-398.74" y="-174.742" width="522.5" height="760.315"/>
				</defs>
				<use xlink:href="#SVGID_3_"  overflow="visible"/>
				<clipPath id="SVGID_4_">
					<use xlink:href="#SVGID_3_"  overflow="visible"/>
				</clipPath>
				<g transform="matrix(1 0 0 1 0 1.525879e-05)" clip-path="url(#SVGID_4_)">
				</g>
				<use xlink:href="#SVGID_3_"  overflow="visible" fill="none" stroke="#000000"/>
			</g>
		</g>
	</g>
	<use xlink:href="#SVGID_1_"  overflow="visible" fill="none" stroke="#000000"/>
</g>
<g>
	<g>
		<defs>
			<polygon id="SVGID_5_" points="3,3.334 131,3.334 131,245.471 66.667,330.666 3,245.471 			"/>
		</defs>
		<use xlink:href="#SVGID_5_"  overflow="visible"/>
		<clipPath id="SVGID_6_">
			<use xlink:href="#SVGID_5_"  overflow="visible"/>
		</clipPath>
		<g clip-path="url(#SVGID_6_)">
			<path stroke="#000000" d="M32.51,228.3c5.422,0.494,14.293-8.379,7.394-10.35c-1.479-3.698,3.696,0.491,6.9,1.971
				c3.205,1.479,17.746,0,17.746,0s5.914-7.887,2.957-10.353c-2.957-2.463-21.688-10.351-21.688-10.351s-5.915-0.493-8.872,2.466
				c-2.957,2.957-18.73,18.729-18.73,18.729s-1.479,1.479-0.986,4.929c0.493,3.452,7.394,25.632,17.745,34.996
				c10.351,9.367,9.365,12.817,9.365,12.817s0.986,29.08-0.986,38.938c-1.971,9.858-5.397,53.736-5.397,53.736h60.661
				c0,0-9.449-71.835-8.93-74.438c1.01-5.068,1.01-14.392,1.01-14.392l-6.781-4.521l-6.799-0.807c0,0,0.494,12.325-1.725,17.253
				c-0.494-4.685,1.725-16.021-0.494-17.005c-3.449-0.494-17.251,1.725-17.251,1.725s9.119-2.219,12.324-2.957
				c3.204-0.738,3.204-5.914,3.204-5.914s1.478,3.203,2.955,4.682c1.479,1.479,7.147,1.232,7.147,1.232l7.394,3.942
				c0,0,13.306-12.325,13.021-16.847c-0.838-13.405,4.23-18.149,4.23-18.149l-6.9,3.452c0,0-7.149,4.452-9.364,5.42
				c-0.566,0.104-7.479-4.792-6.775-3.963c-0.42-1.395-2.59-4.909-11.954-3.432c2.957,4.438,4.846,13.76,4.188,17.254
				c-0.738,3.943-2.466-0.248-2.466-0.248s0.787-11.069-5.713-18.699c-6.497-5.934-6.942-6.643-13.842-7.629
				c-6.901-0.985-13.28-5.65-13.28-5.65S33.496,230.766,32.51,228.3z"/>
			<path stroke="#000000" d="M39.904,192.318c0,0-5.176,10.104-0.739,7.146c4.436-2.957,5.421-1.726,6.407-1.726
				c0.986,0,11.583,5.424,11.583,5.424l9.119-15.526l0.248-4.93l-14.542-4.931c0,0-5.176,1.232-6.654,3.943
				C43.847,184.432,39.904,192.318,39.904,192.318z"/>
			<path stroke="#000000" d="M61.344,203.654c0,0,6.409,2.466,7.641,5.424c1.231,2.956-1.726,11.089-2.71,11.829
				c-0.64,0.479-8.626,2.958-13.062,1.726c-2.013,0.592-0.493,2.465-0.493,2.465c1.233,1.971,9.858,4.928,9.858,4.928
				s2.464,2.957,5.176-1.726c2.71-4.683,12.569-21.194,12.569-21.194l5.914-7.887c0,0,1.725-4.929-3.203-7.394
				c-2.682-1.341-8.627-4.188-8.627-4.188s-2.957-2.712-4.682,0C68,190.346,61.344,203.654,61.344,203.654z"/>
			<path stroke="#000000" d="M87.223,201.438c0,0-13.062,20.701-14.295,24.151c-1.232,2.711-2.217,7.888-2.217,7.888
				s5.174,4.683,8.133,4.683c2.957,0,4.928-1.232,7.393-3.45c2.466-2.218,10.845-13.555,10.845-13.555l6.162-11.092
				C103.242,210.062,93.137,197.494,87.223,201.438z"/>
			<path stroke="#000000" d="M102.566,214.42l-2.715,7.932c0,0-8.951,10.01-9.06,11.506c-0.104,1.494-7.688,2.461-5.062,6.668
				s7.604,4.479,7.604,4.479l15.121-7.624c0,0,3.155-5.877,4.562-7.282c1.694-1.693,1.789-6.688,1.789-6.688
				S103.326,214.596,102.566,214.42z"/>
		</g>
		<use xlink:href="#SVGID_5_"  overflow="visible" fill="none" stroke="#000000"/>
	</g>
</g>
</svg>
