<?xml version="1.0" encoding="utf-8"?>
<!-- Generator: Adobe Illustrator 16.0.4, SVG Export Plug-In . SVG Version: 6.00 Build 0)  -->
<!DOCTYPE svg PUBLIC "-//W3C//DTD SVG 1.1//EN" "http://www.w3.org/Graphics/SVG/1.1/DTD/svg11.dtd">
<svg version="1.1" id="Layer_1" xmlns="http://www.w3.org/2000/svg" xmlns:xlink="http://www.w3.org/1999/xlink" x="0px" y="0px"
	 width="128.994px" height="244.486px" viewBox="0 0 128.994 244.486" enable-background="new 0 0 128.994 244.486"
	 xml:space="preserve">
<g>
	<path fill="#990C10" d="M28.642,244.091h78.464l-11.551-96.284c0,0,2.197-13.453,1.273-21.679c0,0,12.824-11.476,16.824-20.476
		c0,0-2.146-13.926,6.179-27.713l5.897-9.42c0,0,2.205-2.935,2.314-8.649l-15.833-11.627l0.874-5.638
		c0,0-13.51-16.858-20.721-11.155l-1.275-2.869c0,0,3.064-7.179-6.686-10.929l-9.75-5c0,0-3.598-1.858-4.924,0.945h-4.461
		l0.317-6.376L46.781,0.847c0,0-6.338,0.896-8.606,5.102c0,0-11.268,20.455-10.518,22.705l-0.321,3.115L3.656,55.153
		c0,0-4.5,3.75-1,11.5c0,0,3.5,12.25,10,25c0,0,9.5,17.25,18.5,22.5c0,0,6.5,6.25,5.5,13l-0.75,43L28.642,244.091z"/>
	<g>
		<path fill="#990C10" d="M21.598,66.196c7.013,0.64,18.488-10.838,9.563-13.387c-1.913-4.783,4.781,0.637,8.925,2.549
			c4.146,1.914,22.954,0,22.954,0s7.65-10.2,3.824-13.391C63.04,38.781,38.811,28.58,38.811,28.58s-7.65-0.64-11.476,3.188
			C23.51,35.594,3.108,55.995,3.108,55.995s-1.913,1.914-1.275,6.375c0.638,4.465,9.564,33.153,22.953,45.269
			c13.389,12.114,12.113,16.577,12.113,16.577s1.276,37.615-1.275,50.367c-2.549,12.752-6.981,69.508-6.981,69.508h78.463
			c0,0-12.224-92.918-11.551-96.284c1.307-6.558,1.307-18.615,1.307-18.615l-8.771-5.849l-8.793-1.041c0,0,0.639,15.941-2.23,22.316
			c-0.637-6.06,2.23-20.724-0.637-21.996c-4.465-0.64-22.316,2.229-22.316,2.229s11.795-2.869,15.938-3.824
			c4.146-0.957,4.146-7.649,4.146-7.649s1.909,4.144,3.823,6.056c1.912,1.911,9.244,1.596,9.244,1.596l9.563,5.101
			c0,0,17.208-15.942,16.843-21.791c-1.084-17.34,5.473-23.478,5.473-23.478l-8.928,4.466c0,0-9.246,5.76-12.113,7.012
			c-0.731,0.134-9.672-6.198-8.762-5.127c-0.546-1.803-3.352-6.351-15.466-4.438c3.826,5.74,6.269,17.797,5.42,22.315
			c-0.957,5.103-3.188-0.319-3.188-0.319s1.02-14.317-7.389-24.188c-8.405-7.674-8.981-8.592-17.907-9.867
			c-8.927-1.274-17.178-7.309-17.178-7.309S22.873,69.385,21.598,66.196z"/>
		<path fill="#990C10" d="M31.161,19.656c0,0-6.694,13.068-0.956,9.243c5.737-3.825,7.013-2.23,8.288-2.23
			c1.276,0,14.983,7.016,14.983,7.016L65.271,13.6l0.317-6.376L46.781,0.847c0,0-6.695,1.594-8.606,5.102
			C36.261,9.454,31.161,19.656,31.161,19.656z"/>
		<path fill="#990C10" d="M58.894,34.318c0,0,8.291,3.188,9.882,7.016c1.595,3.824-2.231,14.344-3.506,15.301
			c-0.829,0.621-11.16,3.826-16.896,2.232c-2.604,0.766-0.638,3.188-0.638,3.188c1.595,2.549,12.751,6.375,12.751,6.375
			s3.188,3.823,6.696-2.231C70.688,60.14,83.44,38.783,83.44,38.783l7.648-10.201c0,0,2.229-6.375-4.146-9.563
			C83.476,17.284,75.787,13.6,75.787,13.6s-3.824-3.508-6.058,0C67.502,17.104,58.894,34.318,58.894,34.318z"/>
		<path fill="#990C10" d="M92.367,31.45c0,0-16.896,26.776-18.49,31.239C72.284,66.195,71.01,72.89,71.01,72.89
			s6.693,6.058,10.521,6.058c3.823,0,6.375-1.595,9.562-4.464c3.188-2.868,14.026-17.532,14.026-17.532l7.97-14.347
			C113.088,42.606,100.019,26.351,92.367,31.45z"/>
		<path fill="#990C10" d="M112.214,48.243l-3.511,10.26c0,0-11.58,12.945-11.718,14.881c-0.137,1.935-9.943,3.185-6.547,8.625
			c3.397,5.441,9.836,5.793,9.836,5.793l19.559-9.86c0,0,4.083-7.603,5.898-9.42c2.192-2.19,2.313-8.649,2.313-8.649
			S113.194,48.469,112.214,48.243z"/>
	</g>
</g>
<path fill="#470000" d="M94.44,40.027H34.557c-2.871,0-5.194,2.131-5.194,4.761v56.903c0,2.627,2.323,4.761,5.194,4.761h59.882
	c2.867,0,5.191-2.134,5.191-4.761V44.788C99.631,42.158,97.307,40.027,94.44,40.027z M81.058,96.181
	c-1.215,1.222-2.668,1.835-4.366,1.835H64.469c-5.092,0-9.449-1.822-13.062-5.472c-3.61-3.643-5.414-8.032-5.414-13.168V54.399
	c0-1.764,0.599-3.241,1.803-4.441c1.2-1.196,2.673-1.8,4.405-1.8c1.686,0,3.137,0.612,4.334,1.835
	c0.878,0.89,1.437,1.91,1.677,3.062c0.142,0.523,0.215,1.077,0.215,1.661v8.725h17.319c1.58,0,2.937,0.566,4.064,1.695
	c1.011,1.021,1.564,2.222,1.671,3.607c0.022,0.22,0.036,0.439,0.036,0.666c0,1.568-0.562,2.916-1.681,4.043
	c-1.125,1.117-2.473,1.681-4.04,1.681h-17.37v4.34c0,1.701,0.585,3.145,1.777,4.336c0.286,0.287,0.586,0.539,0.904,0.759
	c0.978,0.657,2.097,0.984,3.352,0.984h12.225c1.697,0,3.155,0.617,4.368,1.835c0.153,0.156,0.293,0.31,0.429,0.473
	c0.934,1.118,1.401,2.419,1.401,3.91c0,0.755-0.12,1.463-0.362,2.12C82.228,94.73,81.737,95.494,81.058,96.181z"/>
</svg>
